<?xml version="1.0" standalone="no"?>
<!DOCTYPE svg PUBLIC "-//W3C//DTD SVG 20010904//EN"
 "http://www.w3.org/TR/2001/REC-SVG-20010904/DTD/svg10.dtd">
<svg version="1.0" xmlns="http://www.w3.org/2000/svg"
 width="720.000000pt" height="900.000000pt" viewBox="0 0 720.000000 900.000000"
 preserveAspectRatio="xMidYMid meet">

<g transform="translate(0.000000,900.000000) scale(0.100000,-0.100000)"
fill="#000000" stroke="none">
<path d="M3430 6786 c-63 -29 -162 -76 -220 -103 -58 -28 -314 -150 -570 -272
-256 -122 -482 -233 -502 -247 -70 -45 -84 -82 -158 -403 -219 -946 -270
-1175 -270 -1218 0 -27 9 -67 20 -90 10 -24 102 -145 203 -270 100 -126 295
-367 432 -538 334 -416 341 -424 400 -451 l50 -24 791 0 790 0 51 26 c45 22
77 56 254 277 410 509 535 665 634 787 137 170 145 181 156 247 10 56 5 82
-160 795 -93 406 -177 753 -187 773 -31 65 -90 102 -399 250 -165 78 -453 216
-640 305 -432 207 -438 209 -505 210 -46 0 -74 -9 -170 -54z m235 -446 c22
-22 23 -47 10 -196 -10 -122 6 -184 48 -184 73 0 242 -52 355 -109 64 -32 203
-133 241 -174 18 -20 28 -24 42 -17 10 6 27 10 39 10 14 0 58 34 120 95 87 85
102 95 134 95 69 0 109 -73 71 -128 -9 -12 -37 -34 -63 -49 -93 -53 -162 -106
-168 -129 -3 -13 -12 -28 -19 -34 -11 -9 -6 -24 26 -80 87 -150 129 -318 129
-515 l0 -122 39 -27 c32 -23 58 -29 154 -41 63 -7 124 -18 135 -24 72 -39 42
-151 -40 -151 -18 0 -78 16 -133 36 -85 30 -108 35 -152 29 -49 -6 -53 -8 -64
-43 -56 -176 -245 -414 -400 -505 -35 -20 -36 -23 -31 -66 5 -54 16 -75 82
-178 28 -41 50 -86 50 -99 0 -36 -20 -71 -47 -83 -66 -30 -100 1 -148 139 -39
112 -59 150 -77 150 -6 0 -16 7 -22 16 -11 14 -18 14 -82 -5 -185 -55 -390
-55 -576 0 l-68 20 -31 -23 c-37 -27 -68 -87 -98 -187 -12 -41 -33 -84 -46
-97 -30 -29 -73 -31 -107 -4 -51 39 -42 74 58 240 32 53 43 82 40 100 -3 14
-1 32 4 39 6 10 -8 25 -49 52 -84 56 -173 140 -235 223 -60 80 -128 202 -147
264 -11 38 -14 40 -61 46 -41 6 -66 1 -151 -29 -160 -55 -217 -43 -217 44 0
50 32 78 98 86 178 21 207 27 236 52 l30 25 2 146 c2 184 29 297 106 452 l53
105 -18 37 c-19 40 -49 64 -145 122 -84 51 -102 71 -102 117 0 29 6 42 27 59
48 38 82 23 189 -80 75 -72 99 -90 123 -90 16 0 33 -5 36 -11 4 -6 26 8 53 33
74 68 172 135 267 179 90 42 254 89 311 89 24 0 34 5 34 15 0 9 7 27 16 41 13
19 15 39 10 92 -3 37 -9 99 -12 138 l-7 70 34 28 c37 32 79 30 114 -4z"/>
<path d="M3430 5734 c-126 -26 -258 -91 -359 -175 l-38 -33 56 -41 c119 -87
287 -202 304 -208 32 -12 65 10 76 50 9 34 35 413 28 418 -1 1 -31 -4 -67 -11z"/>
<path d="M3710 5702 c0 -130 22 -378 36 -399 27 -42 69 -31 174 45 52 37 130
92 174 122 l78 54 -33 28 c-103 86 -238 154 -361 181 l-68 15 0 -46z"/>
<path d="M2866 5289 c-50 -108 -67 -180 -73 -313 -6 -113 -5 -118 13 -113 10
3 100 29 199 58 99 28 190 57 203 65 16 10 22 24 22 48 0 32 -13 46 -147 168
-82 73 -156 139 -166 147 -16 12 -20 7 -51 -60z"/>
<path d="M4150 5229 c-161 -143 -180 -163 -180 -189 0 -44 32 -60 225 -116
105 -30 198 -57 208 -60 15 -5 17 2 17 50 0 80 -19 202 -42 271 -19 59 -63
153 -76 167 -4 3 -72 -52 -152 -123z"/>
<path d="M3507 5022 c-35 -42 -38 -51 -33 -88 10 -74 20 -89 80 -113 l55 -23
53 29 c51 27 53 30 66 86 l12 59 -41 49 c-40 48 -42 49 -97 49 -56 0 -58 -1
-95 -48z"/>
<path d="M3050 4693 c-113 -19 -206 -36 -208 -38 -7 -7 63 -140 103 -193 72
-98 199 -212 216 -195 14 16 159 378 159 398 0 22 -23 48 -50 57 -8 3 -107
-10 -220 -29z"/>
<path d="M3912 4714 c-36 -25 -27 -67 54 -264 42 -102 78 -187 80 -189 14 -16
171 132 226 212 36 54 101 178 95 183 -3 3 -412 74 -425 74 -4 0 -18 -7 -30
-16z"/>
<path d="M3562 4542 c-16 -16 -212 -362 -212 -375 0 -3 35 -14 78 -23 99 -23
253 -22 354 1 74 16 77 18 66 38 -84 162 -194 350 -211 362 -28 20 -53 19 -75
-3z"/>
<path d="M500 2953 c-8 -1 -48 -7 -87 -13 l-73 -12 0 -459 0 -459 90 0 90 0 0
135 c0 75 4 135 9 135 12 0 116 -129 166 -208 l40 -62 103 0 c56 0 102 3 102
8 0 27 -122 199 -209 294 l-49 53 129 140 128 140 -107 3 -107 3 -29 -33 c-16
-18 -61 -69 -100 -113 l-71 -79 -5 265 c-4 227 -7 264 -20 262z"/>
<path d="M1920 2953 c-8 -1 -48 -7 -88 -13 l-72 -12 2 -451 3 -452 50 -13 c28
-7 109 -14 180 -15 114 -2 136 1 176 19 137 64 199 196 178 381 -10 92 -35
148 -86 194 -61 55 -117 73 -210 67 -43 -3 -86 -9 -95 -13 -16 -6 -18 6 -20
152 -3 134 -5 158 -18 156z m180 -458 c47 -24 65 -68 65 -160 0 -133 -46 -185
-162 -185 l-63 0 0 170 0 169 33 10 c49 14 95 13 127 -4z"/>
<path d="M5275 2829 c-27 -4 -65 -11 -83 -14 l-33 -6 3 -322 c3 -285 5 -327
21 -362 42 -93 112 -130 247 -130 47 1 102 7 124 14 36 12 38 15 32 45 -4 17
-9 48 -12 68 l-6 37 -83 -6 c-79 -6 -84 -5 -108 19 -30 31 -40 90 -35 228 l3
95 108 3 107 3 0 74 0 75 -110 0 -110 0 0 95 c0 52 -3 94 -7 94 -5 -1 -30 -5
-58 -10z"/>
<path d="M2719 2660 c-172 -30 -280 -204 -249 -403 27 -175 139 -266 329 -267
85 0 196 15 220 29 10 7 11 22 2 76 -5 37 -12 69 -15 72 -2 2 -24 -1 -47 -8
-67 -18 -188 -16 -224 3 -38 21 -72 57 -77 83 -3 19 3 20 205 23 l207 2 0 68
c0 81 -22 163 -57 214 -56 82 -179 128 -294 108z m111 -155 c30 -15 60 -61 60
-90 0 -13 -18 -15 -115 -15 -127 0 -130 2 -99 61 26 52 99 72 154 44z"/>
<path d="M4671 2660 c-104 -22 -172 -77 -220 -180 -23 -49 -26 -67 -26 -165 0
-99 3 -115 27 -161 35 -66 92 -116 164 -144 52 -20 72 -22 179 -17 76 2 133
10 156 19 l36 16 -11 68 c-13 78 -4 74 -123 55 -98 -15 -166 0 -210 44 -18 18
-33 42 -33 54 0 21 3 21 204 21 l203 0 6 35 c8 49 -10 163 -34 212 -51 106
-190 168 -318 143z m131 -167 c18 -15 48 -71 48 -88 0 -3 -54 -5 -121 -5 -120
0 -120 0 -114 23 10 33 39 70 66 85 31 17 95 9 121 -15z"/>
<path d="M5900 2656 c-73 -16 -109 -36 -154 -87 -59 -65 -79 -119 -84 -229 -5
-111 6 -160 51 -226 23 -34 50 -58 97 -83 l65 -36 135 0 c88 0 148 5 174 14
l38 13 -6 60 c-10 80 -14 91 -40 84 -52 -15 -162 -26 -195 -20 -70 13 -131 62
-131 105 0 18 12 19 205 19 l205 0 0 73 c0 142 -51 240 -150 289 -67 33 -137
41 -210 24z m120 -151 c30 -15 60 -61 60 -90 0 -13 -18 -15 -115 -15 -127 0
-130 2 -99 61 26 52 99 72 154 44z"/>
<path d="M6547 2660 c-142 -36 -206 -160 -144 -280 27 -53 49 -70 152 -115 80
-34 125 -64 125 -84 0 -5 -7 -17 -16 -25 -21 -21 -133 -21 -203 0 -30 8 -57
12 -61 7 -10 -11 -34 -132 -27 -139 16 -16 124 -34 208 -34 102 0 179 17 216
49 41 34 63 83 63 138 0 113 -48 165 -203 223 -53 20 -97 52 -97 70 0 6 9 19
20 30 24 24 90 27 168 6 51 -14 52 -14 57 7 14 62 25 113 25 118 1 23 -218 45
-283 29z"/>
<path d="M3325 2649 c-22 -5 -57 -14 -77 -20 l-38 -10 0 -309 0 -310 90 0 90
0 0 249 0 248 44 6 c24 4 70 2 102 -3 32 -5 59 -9 60 -7 1 1 10 33 18 71 11
45 13 73 7 79 -14 14 -247 19 -296 6z"/>
<path d="M3855 2654 c-11 -3 -44 -10 -72 -15 l-53 -10 0 -315 0 -314 90 0 90
0 0 250 0 251 71 -3 c66 -3 74 -5 93 -31 20 -27 21 -43 24 -248 l3 -219 90 0
89 0 0 223 c0 245 -9 300 -57 357 -49 59 -94 74 -228 76 -66 2 -129 0 -140 -2z"/>
<path d="M1032 2413 c3 -216 5 -242 24 -283 25 -53 78 -103 131 -121 48 -17
243 -15 328 3 l60 13 6 90 c4 50 7 190 8 313 l1 222 -95 0 -95 0 0 -250 0
-250 -59 0 c-75 0 -88 5 -109 44 -14 26 -17 67 -20 244 l-4 212 -90 0 -90 0 4
-237z"/>
</g>
</svg>
